<svg width="229" height="44" viewBox="0 0 229 44" fill="none" xmlns="http://www.w3.org/2000/svg">
<path d="M110.182 18.1877V41.9877H106.102V21.8937H96.616V33.0797C96.616 34.8251 96.3553 36.3777 95.834 37.7377C95.3126 39.0751 94.508 40.1177 93.42 40.8657C92.3546 41.6137 90.9946 41.9877 89.34 41.9877V38.5537C89.884 38.5537 90.36 38.4177 90.768 38.1457C91.176 37.8511 91.516 37.4544 91.788 36.9557C92.0826 36.4344 92.298 35.8224 92.434 35.1197C92.5926 34.4171 92.672 33.6464 92.672 32.8077V18.1877H110.182Z" fill="black"/>
<path d="M113.382 34.1677C113.382 32.5584 113.745 31.1417 114.47 29.9177C115.218 28.6937 116.227 27.7417 117.496 27.0617C118.766 26.3591 120.205 26.0077 121.814 26.0077C123.424 26.0077 124.852 26.3591 126.098 27.0617C127.368 27.7417 128.376 28.6937 129.124 29.9177C129.872 31.1417 130.246 32.5584 130.246 34.1677C130.246 35.7544 129.872 37.1711 129.124 38.4177C128.376 39.6417 127.368 40.6051 126.098 41.3077C124.852 41.9877 123.424 42.3277 121.814 42.3277C120.205 42.3277 118.766 41.9877 117.496 41.3077C116.227 40.6051 115.218 39.6417 114.47 38.4177C113.745 37.1711 113.382 35.7544 113.382 34.1677ZM117.156 34.1677C117.156 35.1424 117.36 36.0037 117.768 36.7517C118.176 37.4771 118.732 38.0551 119.434 38.4857C120.137 38.8937 120.93 39.0977 121.814 39.0977C122.676 39.0977 123.458 38.8937 124.16 38.4857C124.886 38.0551 125.452 37.4771 125.86 36.7517C126.268 36.0037 126.472 35.1424 126.472 34.1677C126.472 33.1931 126.268 32.3317 125.86 31.5837C125.452 30.8357 124.886 30.2577 124.16 29.8497C123.458 29.4417 122.676 29.2377 121.814 29.2377C120.93 29.2377 120.137 29.4417 119.434 29.8497C118.732 30.2577 118.176 30.8357 117.768 31.5837C117.36 32.3317 117.156 33.1931 117.156 34.1677Z" fill="black"/>
<path d="M133.186 26.3477H142.162V29.5777H136.824V41.9877H133.186V26.3477Z" fill="black"/>
<path d="M146.304 33.8277H151.268C152.356 33.8277 153.331 33.9411 154.192 34.1677C155.054 34.3944 155.734 34.7911 156.232 35.3577C156.731 35.9244 156.98 36.7177 156.98 37.7377C156.98 38.9164 156.584 39.9251 155.79 40.7637C155.02 41.5797 153.739 41.9877 151.948 41.9877H146.304V39.2677H150.826C151.733 39.2677 152.39 39.0751 152.798 38.6897C153.206 38.3044 153.41 37.8511 153.41 37.3297C153.41 37.0577 153.354 36.8084 153.24 36.5817C153.127 36.3551 152.968 36.1511 152.764 35.9697C152.583 35.7884 152.322 35.6524 151.982 35.5617C151.665 35.4711 151.28 35.4257 150.826 35.4257H146.304V33.8277ZM146.304 34.5077V32.7397H150.486C150.826 32.7397 151.132 32.6944 151.404 32.6037C151.699 32.5131 151.937 32.3771 152.118 32.1957C152.3 32.0144 152.447 31.8104 152.56 31.5837C152.674 31.3571 152.73 31.1191 152.73 30.8697C152.73 30.3484 152.526 29.9177 152.118 29.5777C151.733 29.2377 151.189 29.0677 150.486 29.0677H146.304V26.3477H150.928C151.903 26.3477 152.787 26.4951 153.58 26.7897C154.396 27.0617 155.054 27.5151 155.552 28.1497C156.051 28.7617 156.3 29.5777 156.3 30.5977C156.3 31.4817 156.051 32.2184 155.552 32.8077C155.054 33.3744 154.396 33.8051 153.58 34.0997C152.787 34.3717 151.903 34.5077 150.928 34.5077H146.304ZM144.162 26.3477H147.766V41.9877H144.162V26.3477Z" fill="black"/>
<path d="M173.859 29.7477L159.817 43.1777L159.987 38.5877L174.029 25.1577L173.859 29.7477ZM163.421 26.3477V39.0297L159.817 43.1777V26.3477H163.421ZM174.029 25.1577V41.9877H170.425V29.3057L174.029 25.1577Z" fill="black"/>
<path d="M179.79 35.2557V32.2297H191.758V35.2557H179.79ZM189.786 26.3477H193.39V41.9877H189.786V26.3477ZM178.192 26.3477H181.796V41.9877H178.192V26.3477Z" fill="black"/>
<path d="M196.211 34.1677C196.211 32.5584 196.573 31.1417 197.299 29.9177C198.047 28.6937 199.055 27.7417 200.325 27.0617C201.594 26.3591 203.033 26.0077 204.643 26.0077C206.252 26.0077 207.68 26.3591 208.927 27.0617C210.196 27.7417 211.205 28.6937 211.953 29.9177C212.701 31.1417 213.075 32.5584 213.075 34.1677C213.075 35.7544 212.701 37.1711 211.953 38.4177C211.205 39.6417 210.196 40.6051 208.927 41.3077C207.68 41.9877 206.252 42.3277 204.643 42.3277C203.033 42.3277 201.594 41.9877 200.325 41.3077C199.055 40.6051 198.047 39.6417 197.299 38.4177C196.573 37.1711 196.211 35.7544 196.211 34.1677ZM199.985 34.1677C199.985 35.1424 200.189 36.0037 200.597 36.7517C201.005 37.4771 201.56 38.0551 202.263 38.4857C202.965 38.8937 203.759 39.0977 204.643 39.0977C205.504 39.0977 206.286 38.8937 206.989 38.4857C207.714 38.0551 208.281 37.4771 208.689 36.7517C209.097 36.0037 209.301 35.1424 209.301 34.1677C209.301 33.1931 209.097 32.3317 208.689 31.5837C208.281 30.8357 207.714 30.2577 206.989 29.8497C206.286 29.4417 205.504 29.2377 204.643 29.2377C203.759 29.2377 202.965 29.4417 202.263 29.8497C201.56 30.2577 201.005 30.8357 200.597 31.5837C200.189 32.3317 199.985 33.1931 199.985 34.1677Z" fill="black"/>
<path d="M218.225 33.8277H223.189C224.277 33.8277 225.252 33.9411 226.113 34.1677C226.974 34.3944 227.654 34.7911 228.153 35.3577C228.652 35.9244 228.901 36.7177 228.901 37.7377C228.901 38.9164 228.504 39.9251 227.711 40.7637C226.94 41.5797 225.66 41.9877 223.869 41.9877H218.225V39.2677H222.747C223.654 39.2677 224.311 39.0751 224.719 38.6897C225.127 38.3044 225.331 37.8511 225.331 37.3297C225.331 37.0577 225.274 36.8084 225.161 36.5817C225.048 36.3551 224.889 36.1511 224.685 35.9697C224.504 35.7884 224.243 35.6524 223.903 35.5617C223.586 35.4711 223.2 35.4257 222.747 35.4257H218.225V33.8277ZM218.225 34.5077V32.7397H222.407C222.747 32.7397 223.053 32.6944 223.325 32.6037C223.62 32.5131 223.858 32.3771 224.039 32.1957C224.22 32.0144 224.368 31.8104 224.481 31.5837C224.594 31.3571 224.651 31.1191 224.651 30.8697C224.651 30.3484 224.447 29.9177 224.039 29.5777C223.654 29.2377 223.11 29.0677 222.407 29.0677H218.225V26.3477H222.849C223.824 26.3477 224.708 26.4951 225.501 26.7897C226.317 27.0617 226.974 27.5151 227.473 28.1497C227.972 28.7617 228.221 29.5777 228.221 30.5977C228.221 31.4817 227.972 32.2184 227.473 32.8077C226.974 33.3744 226.317 33.8051 225.501 34.0997C224.708 34.3717 223.824 34.5077 222.849 34.5077H218.225ZM216.083 26.3477H219.687V41.9877H216.083V26.3477Z" fill="black"/>
<path d="M80 40.9878H61.1612L40 19.8275L18.8388 40.9878H0L40 0.987793L80 40.9878Z" fill="black"/>
</svg>
