<svg width="235" height="44" viewBox="0 0 235 44" fill="none" xmlns="http://www.w3.org/2000/svg">
<path d="M111.652 18.0989V41.8989H108.762V20.8189H98.222V33.7389C98.222 35.1895 97.9953 36.5382 97.542 37.7849C97.1113 39.0315 96.454 40.0289 95.57 40.7769C94.7086 41.5249 93.632 41.8989 92.34 41.8989V39.4169C92.8613 39.4169 93.3146 39.2582 93.7 38.9409C94.0853 38.6235 94.414 38.1815 94.686 37.6149C94.958 37.0255 95.162 36.3455 95.298 35.5749C95.434 34.8042 95.502 33.9655 95.502 33.0589V18.0989H111.652Z" fill="white"/>
<path d="M115.569 34.0789C115.569 32.4922 115.92 31.0869 116.623 29.8629C117.348 28.6389 118.323 27.6755 119.547 26.9729C120.771 26.2702 122.142 25.9189 123.661 25.9189C125.202 25.9189 126.574 26.2702 127.775 26.9729C128.999 27.6755 129.962 28.6389 130.665 29.8629C131.39 31.0869 131.753 32.4922 131.753 34.0789C131.753 35.6429 131.39 37.0482 130.665 38.2949C129.962 39.5189 128.999 40.4822 127.775 41.1849C126.574 41.8875 125.202 42.2389 123.661 42.2389C122.142 42.2389 120.771 41.8875 119.547 41.1849C118.323 40.4822 117.348 39.5189 116.623 38.2949C115.92 37.0482 115.569 35.6429 115.569 34.0789ZM118.323 34.0789C118.323 35.1669 118.55 36.1302 119.003 36.9689C119.479 37.8075 120.114 38.4762 120.907 38.9749C121.723 39.4509 122.641 39.6889 123.661 39.6889C124.681 39.6889 125.588 39.4509 126.381 38.9749C127.197 38.4762 127.832 37.8075 128.285 36.9689C128.761 36.1302 128.999 35.1669 128.999 34.0789C128.999 32.9909 128.761 32.0275 128.285 31.1889C127.832 30.3275 127.197 29.6589 126.381 29.1829C125.588 28.7069 124.681 28.4689 123.661 28.4689C122.641 28.4689 121.723 28.7069 120.907 29.1829C120.114 29.6589 119.479 30.3275 119.003 31.1889C118.55 32.0275 118.323 32.9909 118.323 34.0789Z" fill="white"/>
<path d="M135.659 26.2589H143.989V28.8089H138.379V41.8989H135.659V26.2589Z" fill="white"/>
<path d="M148.31 33.7389H152.832C153.92 33.7389 154.895 33.8522 155.756 34.0789C156.617 34.3055 157.297 34.7022 157.796 35.2689C158.295 35.8355 158.544 36.6289 158.544 37.6489C158.544 38.8275 158.147 39.8362 157.354 40.6749C156.583 41.4909 155.303 41.8989 153.512 41.8989H148.31V39.5189H152.832C153.852 39.5189 154.6 39.3035 155.076 38.8729C155.575 38.4422 155.824 37.9209 155.824 37.3089C155.824 36.9915 155.756 36.7082 155.62 36.4589C155.507 36.2095 155.325 35.9829 155.076 35.7789C154.849 35.5749 154.543 35.4275 154.158 35.3369C153.795 35.2235 153.353 35.1669 152.832 35.1669H148.31V33.7389ZM148.31 34.4189V32.8209H152.492C152.9 32.8209 153.263 32.7755 153.58 32.6849C153.92 32.5715 154.203 32.4129 154.43 32.2089C154.657 32.0049 154.827 31.7782 154.94 31.5289C155.076 31.2569 155.144 30.9735 155.144 30.6789C155.144 30.0669 154.906 29.5795 154.43 29.2169C153.954 28.8315 153.308 28.6389 152.492 28.6389H148.31V26.2589H152.492C153.467 26.2589 154.351 26.4062 155.144 26.7009C155.96 26.9729 156.617 27.4262 157.116 28.0609C157.615 28.6729 157.864 29.4889 157.864 30.5089C157.864 31.3929 157.615 32.1295 157.116 32.7189C156.617 33.2855 155.96 33.7162 155.144 34.0109C154.351 34.2829 153.467 34.4189 152.492 34.4189H148.31ZM146.712 26.2589H149.432V41.8989H146.712V26.2589Z" fill="white"/>
<path d="M175.208 28.9789L162.288 43.0889L162.458 39.1789L175.378 25.0689L175.208 28.9789ZM165.008 26.2589V39.3489L162.288 43.0889V26.2589H165.008ZM175.378 25.0689V41.8989H172.658V28.8089L175.378 25.0689Z" fill="white"/>
<path d="M182.244 34.9289V32.3789H193.804V34.9289H182.244ZM192.036 26.2589H194.756V41.8989H192.036V26.2589ZM180.646 26.2589H183.366V41.8989H180.646V26.2589Z" fill="white"/>
<path d="M198.51 34.0789C198.51 32.4922 198.862 31.0869 199.564 29.8629C200.29 28.6389 201.264 27.6755 202.488 26.9729C203.712 26.2702 205.084 25.9189 206.602 25.9189C208.144 25.9189 209.515 26.2702 210.716 26.9729C211.94 27.6755 212.904 28.6389 213.606 29.8629C214.332 31.0869 214.694 32.4922 214.694 34.0789C214.694 35.6429 214.332 37.0482 213.606 38.2949C212.904 39.5189 211.94 40.4822 210.716 41.1849C209.515 41.8875 208.144 42.2389 206.602 42.2389C205.084 42.2389 203.712 41.8875 202.488 41.1849C201.264 40.4822 200.29 39.5189 199.564 38.2949C198.862 37.0482 198.51 35.6429 198.51 34.0789ZM201.264 34.0789C201.264 35.1669 201.491 36.1302 201.944 36.9689C202.42 37.8075 203.055 38.4762 203.848 38.9749C204.664 39.4509 205.582 39.6889 206.602 39.6889C207.622 39.6889 208.529 39.4509 209.322 38.9749C210.138 38.4762 210.773 37.8075 211.226 36.9689C211.702 36.1302 211.94 35.1669 211.94 34.0789C211.94 32.9909 211.702 32.0275 211.226 31.1889C210.773 30.3275 210.138 29.6589 209.322 29.1829C208.529 28.7069 207.622 28.4689 206.602 28.4689C205.582 28.4689 204.664 28.7069 203.848 29.1829C203.055 29.6589 202.42 30.3275 201.944 31.1889C201.491 32.0275 201.264 32.9909 201.264 34.0789Z" fill="white"/>
<path d="M220.029 33.7389H224.551C225.639 33.7389 226.613 33.8522 227.475 34.0789C228.336 34.3055 229.016 34.7022 229.515 35.2689C230.014 35.8355 230.263 36.6289 230.263 37.6489C230.263 38.8275 229.866 39.8362 229.073 40.6749C228.302 41.4909 227.021 41.8989 225.231 41.8989H220.029V39.5189H224.551C225.571 39.5189 226.319 39.3035 226.795 38.8729C227.294 38.4422 227.543 37.9209 227.543 37.3089C227.543 36.9915 227.475 36.7082 227.339 36.4589C227.225 36.2095 227.044 35.9829 226.795 35.7789C226.568 35.5749 226.262 35.4275 225.877 35.3369C225.514 35.2235 225.072 35.1669 224.551 35.1669H220.029V33.7389ZM220.029 34.4189V32.8209H224.211C224.619 32.8209 224.981 32.7755 225.299 32.6849C225.639 32.5715 225.922 32.4129 226.149 32.2089C226.375 32.0049 226.546 31.7782 226.659 31.5289C226.795 31.2569 226.863 30.9735 226.863 30.6789C226.863 30.0669 226.625 29.5795 226.149 29.2169C225.673 28.8315 225.027 28.6389 224.211 28.6389H220.029V26.2589H224.211C225.186 26.2589 226.069 26.4062 226.863 26.7009C227.679 26.9729 228.336 27.4262 228.835 28.0609C229.333 28.6729 229.583 29.4889 229.583 30.5089C229.583 31.3929 229.333 32.1295 228.835 32.7189C228.336 33.2855 227.679 33.7162 226.863 34.0109C226.069 34.2829 225.186 34.4189 224.211 34.4189H220.029ZM218.431 26.2589H221.151V41.8989H218.431V26.2589Z" fill="white"/>
<path d="M80 40.8989H61.1612L40 19.7386L18.8388 40.8989H0L40 0.898926L80 40.8989Z" fill="white"/>
</svg>
