<svg width="300" height="300" viewBox="0 0 300 300" fill="none" xmlns="http://www.w3.org/2000/svg">
<path fill-rule="evenodd" clip-rule="evenodd" d="M144.082 1.36051C143.175 1.62916 140.672 3.71995 138.519 6.00579C134.8 9.95609 134.629 10.5156 135.111 17.1839C135.587 23.7845 135.926 24.4689 140.758 28.64L145.9 33.0762L139.794 32.352L133.689 31.6267L133.688 35.5863L133.687 39.5448L116.932 39.6032C99.9213 39.6639 92.8944 41.1859 67.2328 50.3713C62.9084 51.9189 53.9834 50.8385 52.1599 48.5468C47.7109 42.9531 42.0189 42.2897 36.2582 46.692C27.6223 53.2902 32.5786 66.0241 43.5311 65.3782C48.295 65.0967 48.5783 65.2544 48.5783 68.192C48.5783 69.9032 47.487 72.293 46.1532 73.5019C44.3973 75.0939 43.9053 76.5832 44.3694 78.9064C44.7215 80.6702 44.2633 83.5727 43.3515 85.3575C41.5712 88.8441 32.462 108.098 24.9629 124.227C22.4235 129.688 19.3537 136.099 18.14 138.475C16.9263 140.851 15.9329 143.874 15.9329 145.191C15.9329 146.51 15.4328 147.588 14.8218 147.588C14.2109 147.588 12.708 149.856 11.4838 152.629C9.74547 156.567 8.39419 157.917 5.3092 158.8C2.54601 159.591 1.24602 160.717 0.982526 162.547C0.42872 166.402 4.17244 176.789 6.11601 176.789C7.02658 176.789 7.77159 177.872 7.77159 179.194C7.77159 180.732 8.26244 181.295 9.1357 180.754C10.0416 180.194 10.2596 180.537 9.78395 181.78C9.29776 183.046 10.2083 184.374 12.6043 185.894C14.5502 187.128 16.1859 188.607 16.2384 189.18C16.3935 190.871 27.8823 197.814 30.5254 197.814C31.8615 197.814 33.5777 198.437 34.3379 199.199C36.0401 200.904 61.4032 201.599 61.4032 199.941C61.4032 199.326 62.3674 199.131 63.545 199.505C66.8061 200.542 80.3364 193.047 86.6871 186.685C94.1605 179.197 97.8052 172.899 99.3057 164.882C100.069 160.802 99.9003 160.475 96.2067 158.902C92.1179 157.16 91.5431 156.236 82.6216 137.076C80.0799 131.615 74.332 119.526 69.8502 110.211C56.4108 82.2797 55.386 79.9226 56.1543 78.6775C56.5601 78.021 55.8081 76.1031 54.4836 74.4165C49.9389 68.6289 51.0792 66.9936 59.6544 66.9936C64.4171 66.9936 67.2328 66.5136 67.2328 65.7006C67.2328 64.9472 68.0851 64.737 69.2731 65.1948C70.931 65.8361 91.8124 61.463 98.7122 59.0299C102.198 57.8012 115.035 57.7942 115.035 59.0206C115.035 59.7366 116.237 59.9363 117.95 59.5053C119.72 59.0603 120.864 59.2717 120.864 60.0415C120.864 60.7797 121.841 61.0004 123.196 60.5694C124.624 60.1151 125.528 60.3592 125.528 61.2002C125.528 61.9547 126.315 62.2689 127.277 61.8986C128.239 61.5295 129.026 61.797 129.026 62.4943C129.026 63.1917 130.075 63.4872 131.358 63.1508C133.51 62.5866 133.689 63.1157 133.689 70.0235C133.689 75.7539 134.082 77.5059 135.367 77.5059C138.457 77.5059 139.182 90.748 137.828 122.475C137.473 130.827 136.942 145.807 136.651 155.764C135.502 194.938 134.861 201.549 131.811 205.62C128.439 210.12 128.387 211.25 131.286 216.947L133.548 221.39L130.111 226.143C125.859 232.023 123.984 233.363 117.357 235.255C111.194 237.015 105.759 241.551 106.477 244.334C106.868 245.851 105.434 246.739 100.041 248.314C92.3056 250.573 85.8873 255.261 85.8873 258.652C85.8873 259.878 84.051 262.918 81.8066 265.406C76.6358 271.139 75.8465 281.786 80.2419 286.513C89.1751 296.119 109.165 299.965 150.012 299.937C190.777 299.91 210.339 296.335 219.403 287.255C223.934 282.716 223.673 270.225 218.954 265.786C217.116 264.055 215.272 261.209 214.86 259.46C214.447 257.711 212.967 255.216 211.574 253.914C208.954 251.469 197.958 246.871 194.729 246.871C193.391 246.871 193.082 246.135 193.584 244.133C194.526 240.369 190.694 237.09 182.657 234.783C175.298 232.67 169.874 228.166 167.834 222.474C166.398 218.465 167.453 214.166 169.873 214.166C171.956 214.166 171.021 209.368 168.21 205.62C165.074 201.442 164.321 194.234 163.428 159.852C163.161 149.574 162.638 134.857 162.265 127.147C160.786 96.5846 161.706 77.5059 164.657 77.5059C165.946 77.5059 166.335 75.7305 166.335 69.8448C166.335 65.4249 166.793 62.4675 167.418 62.8541C168.858 63.7465 179.16 60.9479 179.16 59.6642C179.16 59.1117 180.235 59.0019 181.547 59.4189C182.86 59.8371 184.566 59.6724 185.337 59.0533C186.993 57.7241 200.08 57.8315 202.197 59.1923C203.004 59.7121 204.709 59.8044 205.986 59.3979C207.263 58.9926 208.307 59.1748 208.307 59.8044C208.307 60.7563 215.087 62.6509 219.383 62.8997C220.025 62.937 221.268 63.4171 222.144 63.9661C223.022 64.5162 226.029 65.0629 228.828 65.1808C231.627 65.2988 234.276 65.7555 234.714 66.1947C235.153 66.6339 238.31 66.9936 241.73 66.9936C248.624 66.9936 249.69 68.6546 246.095 73.7963C245.076 75.254 244.569 77.2992 244.969 78.3423C245.368 79.3853 245.236 80.544 244.674 80.9166C244.113 81.2892 239.822 89.7411 235.138 99.6986C230.455 109.656 223.555 124.267 219.804 132.169C216.055 140.069 211.911 149.039 210.596 152.1C208.729 156.45 207.324 157.987 204.177 159.128C200.994 160.281 200.146 161.224 200.146 163.611C200.146 171.324 214.051 191.973 219.244 191.973C220.282 191.973 221.132 192.406 221.132 192.935C221.132 194.291 230.974 199.055 234.826 199.565C236.592 199.798 238.038 200.096 238.038 200.227C238.038 200.356 243.153 200.589 249.405 200.743C256.244 200.91 260.773 200.566 260.773 199.876C260.773 199.247 261.595 199.048 262.6 199.434C263.605 199.82 266.724 199.088 269.531 197.807C272.339 196.525 275.113 195.478 275.696 195.478C276.278 195.478 278.171 194.164 279.9 192.557C281.63 190.951 283.338 189.637 283.696 189.637C284.929 189.637 289.88 184.378 289.901 183.046C289.911 182.311 290.646 181.432 291.531 181.092C293.688 180.263 299.748 164.595 298.834 162.21C298.438 161.174 296.641 159.812 294.841 159.183C291.597 158.05 288.954 153.393 279.971 132.988C278.557 129.776 272.406 116.84 266.303 104.24C258.538 88.2133 255.37 80.4681 255.755 78.4509C256.168 76.2865 255.554 75.0741 253.293 73.5895C247.274 69.6381 251.968 62.6906 258.864 65.342C262.193 66.621 267.443 59.8382 267.254 54.5015C266.913 44.8185 257.026 40.2678 250.519 46.7971C247.198 50.1295 236.79 52.5544 234.598 50.508C233.989 49.938 232.573 49.4731 231.453 49.4731C230.331 49.4731 225.059 48.0749 219.736 46.3661C214.412 44.6573 209.139 43.3105 208.016 43.3736C206.893 43.4367 205.976 43.0325 205.976 42.4754C205.976 40.6696 194.059 39.2551 180.089 39.4011L166.443 39.5448L166.098 36.0407C165.765 32.665 165.544 32.5401 160.115 32.616L154.479 32.6954L157.2 30.5976C158.697 29.4448 160.273 28.4881 160.701 28.4741C162.612 28.4111 166.335 20.1916 166.33 16.0462C166.325 10.8578 163.042 4.74665 159.111 2.60798C156.464 1.16896 147.298 0.407397 144.082 1.36051ZM256.348 91.8237C260.629 100.206 273.966 128.011 282.166 145.648C287.155 156.38 287.317 157.456 283.8 156.47C282.356 156.066 274.225 155.117 265.728 154.363L250.28 152.989V118.168C250.28 99.0153 250.674 83.3508 251.154 83.3555C251.635 83.3613 253.972 87.1726 256.348 91.8237ZM48.5783 118.821V153.127L36.6278 153.964C30.0544 154.425 22.3163 155.238 19.4318 155.77C16.5462 156.303 14.029 156.583 13.8378 156.392C13.4134 155.966 17.5349 146.891 26.587 128.316C37.304 106.326 46.2465 86.925 46.2465 85.6658C46.2465 85.0328 46.7711 84.5142 47.4124 84.5142C48.1632 84.5142 48.5783 96.7283 48.5783 118.821ZM56.2243 89.4783C57.5406 92.2092 61.0197 99.4358 63.9554 105.539C66.89 111.642 73.58 125.496 78.823 136.326C84.0661 147.156 88.1468 156.226 87.8926 156.48C87.6385 156.735 84.8088 156.445 81.6049 155.837C78.3998 155.228 70.4448 154.362 63.9274 153.912L52.076 153.094V118.804C52.076 99.9451 52.4701 84.5142 52.9528 84.5142C53.4343 84.5142 54.9068 86.7474 56.2243 89.4783ZM247.948 118.805V153.095L235.415 153.897C228.522 154.337 220.798 155.171 218.25 155.75C215.704 156.33 213.397 156.581 213.125 156.309C212.464 155.645 216.817 146.002 231.033 116.635C237.565 103.144 243.645 90.3976 244.547 88.3103C245.448 86.223 246.582 84.5142 247.067 84.5142C247.552 84.5142 247.948 99.9451 247.948 118.805Z" fill="#2970FF"/>
</svg>
