<svg width="24" height="24" viewBox="0 0 24 24" fill="none" xmlns="http://www.w3.org/2000/svg">
<path d="M2 10C2 7.172 2 5.757 2.879 4.879C3.757 4 5.172 4 8 4H13C15.828 4 17.243 4 18.121 4.879C19 5.757 19 7.172 19 10C19 12.828 19 14.243 18.121 15.121C17.243 16 15.828 16 13 16H8C5.172 16 3.757 16 2.879 15.121C2 14.243 2 12.828 2 10Z" stroke="black" stroke-width="1.5"/>
<path opacity="0.5" d="M19 7.076C19.975 7.172 20.632 7.389 21.122 7.879C22 8.757 22 10.172 22 13C22 15.828 22 17.243 21.122 18.121C20.242 19.001 18.829 19.001 16 19.001H11C8.17199 19.001 6.75799 19.001 5.87899 18.121C5.38899 17.631 5.17199 16.975 5.07599 16" stroke="black" stroke-width="1.5"/>
<path d="M13 10C13 10.663 12.7366 11.2989 12.2678 11.7678C11.7989 12.2366 11.163 12.5 10.5 12.5C9.83696 12.5 9.20107 12.2366 8.73223 11.7678C8.26339 11.2989 8 10.663 8 10C8 9.33696 8.26339 8.70107 8.73223 8.23223C9.20107 7.76339 9.83696 7.5 10.5 7.5C11.163 7.5 11.7989 7.76339 12.2678 8.23223C12.7366 8.70107 13 9.33696 13 10Z" stroke="black" stroke-width="1.5"/>
<path opacity="0.5" d="M16 12V8M5 12V8" stroke="black" stroke-width="1.5" stroke-linecap="round"/>
</svg>
