<svg width="24" height="24" viewBox="0 0 24 24" fill="none" xmlns="http://www.w3.org/2000/svg">
<path d="M5.312 10.762C8.23 5.587 9.689 3 12 3C14.311 3 15.77 5.587 18.688 10.762L19.052 11.406C21.477 15.706 22.69 17.856 21.594 19.428C20.498 21 17.786 21 12.364 21H11.636C6.214 21 3.502 21 2.406 19.428C1.31 17.856 2.523 15.706 4.948 11.406L5.312 10.762Z" stroke="black" stroke-width="1.5"/>
<path opacity="0.5" d="M12 8V13" stroke="black" stroke-width="1.5" stroke-linecap="round"/>
<path opacity="0.5" d="M12 17C12.5523 17 13 16.5523 13 16C13 15.4477 12.5523 15 12 15C11.4477 15 11 15.4477 11 16C11 16.5523 11.4477 17 12 17Z" fill="black"/>
</svg>
